# xmcd
#
# Track frame offsets: 
#        150
#        58731
#        65735
#        90006
#        110385
#        132397
#        182401
#        252089
#
# Disc length: 3657 seconds
#
# Revision: 0
# Processed by: cddbd v1.5.2PL0 Copyright (c) Steve Scherf et al.
# Submitted via: ExactAudioCopy v0.95b3
#
DISCID=640e4708
DTITLE=The Doors  - Live at the Hollywood Bowl - 1968-07-05  FLAC
DYEAR=1900
DGENRE=
TTITLE0=Intro-When The Music's Over
TTITLE1=Alabama Song (Whiskey Bar)
TTITLE2=Backdoor Man
TTITLE3=Moonlight Drive
TTITLE4=Celebration of the Lizard 
TTITLE5=Wake Up-Light My Fire
TTITLE6=The End
TTITLE7=Unknown Soldier
EXTD=
EXTT0=
EXTT1=
EXTT2=
EXTT3=
EXTT4=
EXTT5=
EXTT6=
EXTT7=
PLAYORDER=
